<svg width="32" height="32" viewBox="0 0 32 32" fill="none" xmlns="http://www.w3.org/2000/svg">
<g clip-path="url(#clip0)">
<path d="M0 12C0 5.37258 5.37258 0 12 0H20C26.6274 0 32 5.37258 32 12V20C32 26.6274 26.6274 32 20 32H12C5.37258 32 0 26.6274 0 20V12Z" fill="url(#paint0_linear)"/>
<g filter="url(#filter0_dd)">
<path d="M6.04699 18.6681C6.08059 18.7949 6.13898 18.9139 6.21879 19.0181C6.2986 19.1222 6.39825 19.2096 6.51199 19.2751L8.42199 20.3791V22.5781C8.42199 22.8433 8.52735 23.0976 8.71489 23.2852C8.90242 23.4727 9.15678 23.5781 9.42199 23.5781H11.621L12.725 25.4881C12.8135 25.6394 12.9399 25.7651 13.0918 25.8528C13.2436 25.9404 13.4157 25.9871 13.591 25.9881C13.765 25.9881 13.938 25.9421 14.092 25.8531L16 24.7501L17.91 25.8541C18.1396 25.9865 18.4124 26.0224 18.6685 25.954C18.9245 25.8856 19.143 25.7184 19.276 25.4891L20.379 23.5791H22.578C22.8432 23.5791 23.0976 23.4737 23.2851 23.2862C23.4726 23.0986 23.578 22.8443 23.578 22.5791V20.3801L25.488 19.2761C25.6018 19.2103 25.7015 19.1228 25.7814 19.0185C25.8613 18.9142 25.9199 18.7952 25.9538 18.6682C25.9877 18.5413 25.9962 18.4089 25.9789 18.2786C25.9616 18.1483 25.9188 18.0228 25.853 17.9091L24.75 16.0001L25.854 14.0921C25.9867 13.8625 26.0228 13.5897 25.9543 13.3335C25.8859 13.0773 25.7185 12.8588 25.489 12.7261L23.579 11.6221V9.42206C23.579 9.15685 23.4736 8.90249 23.2861 8.71496C23.0986 8.52742 22.8442 8.42206 22.579 8.42206H20.38L19.277 6.51306C19.1438 6.28398 18.9257 6.11657 18.67 6.04706C18.5432 6.01268 18.4108 6.00381 18.2805 6.02098C18.1502 6.03814 18.0246 6.081 17.911 6.14706L16 7.25006L14.091 6.14606C13.8614 6.01338 13.5886 5.97729 13.3324 6.04574C13.0763 6.11418 12.8578 6.28156 12.725 6.51106L11.621 8.42106H9.42199C9.15678 8.42106 8.90242 8.52642 8.71489 8.71396C8.52735 8.90149 8.42199 9.15585 8.42199 9.42106V11.6201L6.51199 12.7241C6.28256 12.8574 6.11532 13.0763 6.0469 13.3327C5.97849 13.5891 6.01448 13.8621 6.14699 14.0921L7.25099 16.0001L6.14699 17.9081C6.01498 18.1384 5.97905 18.4114 6.04699 18.6681ZM16 17.0001C12.52 17.0001 12 15.1211 12 14.0001C12 12.7131 13.029 11.4171 15 11.0851V10.0121H17V11.1211C18.734 11.5311 19.4 12.9741 19.4 14.0001H18.4L17.4 14.0181C17.386 13.6381 17.185 13.0001 16 13.0001C14.701 13.0001 14 13.5151 14 14.0001C14 14.3741 14 15.0001 16 15.0001C19.48 15.0001 20 16.8791 20 18.0001C20 19.2871 18.971 20.5831 17 20.9151V22.0001H15V20.9201C12.661 20.5531 12 18.9171 12 18.0001H14C14.011 18.1431 14.159 19.0001 16 19.0001C17.38 19.0001 18 18.4151 18 18.0001C18 17.6751 18 17.0001 16 17.0001Z" fill="white"/>
</g>
</g>
<defs>
<filter id="filter0_dd" x="0" y="2.00006" width="32" height="34" filterUnits="userSpaceOnUse" color-interpolation-filters="sRGB">
<feFlood flood-opacity="0" result="BackgroundImageFix"/>
<feColorMatrix in="SourceAlpha" type="matrix" values="0 0 0 0 0 0 0 0 0 0 0 0 0 0 0 0 0 0 127 0" result="hardAlpha"/>
<feOffset dy="4"/>
<feGaussianBlur stdDeviation="2"/>
<feColorMatrix type="matrix" values="0 0 0 0 0 0 0 0 0 0 0 0 0 0 0 0 0 0 0.1 0"/>
<feBlend mode="normal" in2="BackgroundImageFix" result="effect1_dropShadow"/>
<feColorMatrix in="SourceAlpha" type="matrix" values="0 0 0 0 0 0 0 0 0 0 0 0 0 0 0 0 0 0 127 0" result="hardAlpha"/>
<feOffset dy="2"/>
<feGaussianBlur stdDeviation="2"/>
<feColorMatrix type="matrix" values="0 0 0 0 0 0 0 0 0 0 0 0 0 0 0 0 0 0 0.06 0"/>
<feBlend mode="normal" in2="effect1_dropShadow" result="effect2_dropShadow"/>
<feBlend mode="normal" in="SourceGraphic" in2="effect2_dropShadow" result="shape"/>
</filter>
<linearGradient id="paint0_linear" x1="16" y1="0" x2="16" y2="32" gradientUnits="userSpaceOnUse">
<stop stop-color="#A3E635"/>
<stop offset="1" stop-color="#16A34A"/>
</linearGradient>
<clipPath id="clip0">
<path d="M0 12C0 5.37258 5.37258 0 12 0H20C26.6274 0 32 5.37258 32 12V20C32 26.6274 26.6274 32 20 32H12C5.37258 32 0 26.6274 0 20V12Z" fill="white"/>
</clipPath>
</defs>
</svg>
